<mxfile host="Electron" modified="2024-03-13T10:56:42.069Z" agent="Mozilla/5.0 (X11; Linux x86_64) AppleWebKit/537.36 (KHTML, like Gecko) draw.io/23.1.5 Chrome/120.0.6099.109 Electron/28.1.0 Safari/537.36" etag="ZAvhBH0fjLASeNVHfd4y" version="23.1.5" type="device">
  <diagram name="Page-1" id="hclVjKuHs31922JEID7I">
    <mxGraphModel dx="2191" dy="843" grid="1" gridSize="10" guides="1" tooltips="1" connect="1" arrows="1" fold="1" page="1" pageScale="1" pageWidth="827" pageHeight="1169" math="0" shadow="0">
      <root>
        <object label="" id="0">
          <mxCell />
        </object>
        <mxCell id="1" parent="0" />
        <mxCell id="8iDsTku8ZmkkwbwYQFnV-1" value="" style="whiteSpace=wrap;html=1;aspect=fixed;" parent="1" vertex="1">
          <mxGeometry x="-75" y="190" width="450" height="450" as="geometry" />
        </mxCell>
        <mxCell id="8iDsTku8ZmkkwbwYQFnV-2" value="Drop Down For Days&amp;nbsp;" style="rounded=0;whiteSpace=wrap;html=1;" parent="1" vertex="1">
          <mxGeometry x="90" y="100" width="120" height="40" as="geometry" />
        </mxCell>
        <mxCell id="8iDsTku8ZmkkwbwYQFnV-3" value="&amp;nbsp;Day 1&amp;nbsp;&lt;br&gt;Day 2&lt;br&gt;Day 3&lt;br&gt;Day 4&lt;br&gt;Day 5&lt;br&gt;Day 6" style="whiteSpace=wrap;html=1;aspect=fixed;" parent="1" vertex="1">
          <mxGeometry x="90" y="140" width="120" height="120" as="geometry" />
        </mxCell>
        <mxCell id="8iDsTku8ZmkkwbwYQFnV-7" value="KPI measures" style="rounded=0;whiteSpace=wrap;html=1;" parent="1" vertex="1">
          <mxGeometry x="244" y="100" width="120" height="40" as="geometry" />
        </mxCell>
        <mxCell id="8iDsTku8ZmkkwbwYQFnV-8" value="&lt;p style=&quot;line-height: 1.15px; margin-bottom: 0.25cm; background: transparent; font-size: medium; text-align: start;&quot;&gt;Scores&lt;/p&gt;&lt;p style=&quot;line-height: 1.15px; margin-bottom: 0.25cm; background: transparent; font-size: medium; text-align: start;&quot;&gt;Factory Utilisation&lt;/p&gt;&lt;p style=&quot;line-height: 1.15px; margin-bottom: 0.25cm; background: transparent; font-size: medium; text-align: start;&quot;&gt;Employee Engagement&lt;/p&gt;&lt;p style=&quot;line-height: 1.15px; margin-bottom: 0.25cm; background: transparent; font-size: medium; text-align: start;&quot;&gt;Interest Coverage&lt;/p&gt;&lt;p style=&quot;line-height: 1.15px; margin-bottom: 0.25cm; background: transparent; font-size: medium; text-align: start;&quot;&gt;&lt;span style=&quot;background-color: transparent;&quot;&gt;Cumulative Marketing&lt;/span&gt;&lt;/p&gt;&lt;p style=&quot;line-height: 1.15px; margin-bottom: 0.25cm; background: transparent; font-size: medium; text-align: start;&quot;&gt;&lt;span style=&quot;background-color: transparent;&quot;&gt;Spend/Rev&lt;/span&gt;&lt;br&gt;&lt;/p&gt;&lt;p style=&quot;line-height: 1.15px; margin-bottom: 0.25cm; background: transparent; font-size: medium; text-align: start;&quot;&gt;eCar Sales&lt;/p&gt;&lt;p style=&quot;line-height: 1.15px; margin-bottom: 0.25cm; background: transparent; font-size: medium; text-align: start;&quot;&gt;CO2 Penalty&lt;/p&gt;&lt;p style=&quot;line-height: 1.15px; margin-bottom: 0.25cm; background: transparent; font-size: medium; text-align: start;&quot;&gt;WACC&lt;/p&gt;" style="whiteSpace=wrap;html=1;aspect=fixed;" parent="1" vertex="1">
          <mxGeometry x="244" y="140" width="190" height="190" as="geometry" />
        </mxCell>
        <object label="Team Name" Date="23-06-19" Score="1301.40" FactoryUtilization="97.00" EmployeeEngegement="100.00" InterestCoverage="9" CumulativeMarketingSpend-Rev="509.60" eCarSales="0" CO2Penalty="1705.70" WACC="7.40" placeholders="1" id="8iDsTku8ZmkkwbwYQFnV-92">
          <mxCell style="shape=table;startSize=30;container=1;collapsible=0;childLayout=tableLayout;strokeColor=default;fontSize=16;movable=1;resizable=1;rotatable=1;deletable=1;editable=1;locked=0;connectable=1;" parent="1" vertex="1">
            <mxGeometry x="500" y="770" width="1600" height="345" as="geometry" />
          </mxCell>
        </object>
        <mxCell id="8iDsTku8ZmkkwbwYQFnV-93" value="" style="shape=tableRow;horizontal=0;startSize=0;swimlaneHead=0;swimlaneBody=0;strokeColor=inherit;top=0;left=0;bottom=0;right=0;collapsible=0;dropTarget=0;fillColor=none;points=[[0,0.5],[1,0.5]];portConstraint=eastwest;fontSize=16;" parent="8iDsTku8ZmkkwbwYQFnV-92" vertex="1">
          <mxGeometry y="30" width="1600" height="138" as="geometry" />
        </mxCell>
        <mxCell id="-KVg8czxYZ8thADuA0Gg-16" value="Date" style="shape=partialRectangle;html=1;whiteSpace=wrap;connectable=0;strokeColor=inherit;overflow=hidden;fillColor=none;top=0;left=0;bottom=0;right=0;pointerEvents=1;fontSize=16;" vertex="1" parent="8iDsTku8ZmkkwbwYQFnV-93">
          <mxGeometry width="165" height="138" as="geometry">
            <mxRectangle width="165" height="138" as="alternateBounds" />
          </mxGeometry>
        </mxCell>
        <mxCell id="-KVg8czxYZ8thADuA0Gg-13" value="Score" style="shape=partialRectangle;html=1;whiteSpace=wrap;connectable=0;strokeColor=inherit;overflow=hidden;fillColor=none;top=0;left=0;bottom=0;right=0;pointerEvents=1;fontSize=16;" vertex="1" parent="8iDsTku8ZmkkwbwYQFnV-93">
          <mxGeometry x="165" width="115" height="138" as="geometry">
            <mxRectangle width="115" height="138" as="alternateBounds" />
          </mxGeometry>
        </mxCell>
        <mxCell id="-KVg8czxYZ8thADuA0Gg-10" value="FactoryUtilization" style="shape=partialRectangle;html=1;whiteSpace=wrap;connectable=0;strokeColor=inherit;overflow=hidden;fillColor=none;top=0;left=0;bottom=0;right=0;pointerEvents=1;fontSize=16;" vertex="1" parent="8iDsTku8ZmkkwbwYQFnV-93">
          <mxGeometry x="280" width="190" height="138" as="geometry">
            <mxRectangle width="190" height="138" as="alternateBounds" />
          </mxGeometry>
        </mxCell>
        <mxCell id="-KVg8czxYZ8thADuA0Gg-7" value="EmployeeEngegement" style="shape=partialRectangle;html=1;whiteSpace=wrap;connectable=0;strokeColor=inherit;overflow=hidden;fillColor=none;top=0;left=0;bottom=0;right=0;pointerEvents=1;fontSize=16;" vertex="1" parent="8iDsTku8ZmkkwbwYQFnV-93">
          <mxGeometry x="470" width="200" height="138" as="geometry">
            <mxRectangle width="200" height="138" as="alternateBounds" />
          </mxGeometry>
        </mxCell>
        <mxCell id="-KVg8czxYZ8thADuA0Gg-4" value="&lt;div style=&quot;text-align: start;&quot;&gt;&lt;span style=&quot;background-color: initial;&quot;&gt;&lt;font size=&quot;3&quot;&gt;InterestCoverage&lt;/font&gt;&lt;/span&gt;&lt;/div&gt;" style="shape=partialRectangle;html=1;whiteSpace=wrap;connectable=0;strokeColor=inherit;overflow=hidden;fillColor=none;top=0;left=0;bottom=0;right=0;pointerEvents=1;fontSize=16;" vertex="1" parent="8iDsTku8ZmkkwbwYQFnV-93">
          <mxGeometry x="670" width="150" height="138" as="geometry">
            <mxRectangle width="150" height="138" as="alternateBounds" />
          </mxGeometry>
        </mxCell>
        <mxCell id="-KVg8czxYZ8thADuA0Gg-1" value="CumulativeMarketingSpend-Rev" style="shape=partialRectangle;html=1;whiteSpace=wrap;connectable=0;strokeColor=inherit;overflow=hidden;fillColor=none;top=0;left=0;bottom=0;right=0;pointerEvents=1;fontSize=16;" vertex="1" parent="8iDsTku8ZmkkwbwYQFnV-93">
          <mxGeometry x="820" width="315" height="138" as="geometry">
            <mxRectangle width="315" height="138" as="alternateBounds" />
          </mxGeometry>
        </mxCell>
        <mxCell id="8iDsTku8ZmkkwbwYQFnV-94" value="eCarSales" style="shape=partialRectangle;html=1;whiteSpace=wrap;connectable=0;strokeColor=inherit;overflow=hidden;fillColor=none;top=0;left=0;bottom=0;right=0;pointerEvents=1;fontSize=16;" parent="8iDsTku8ZmkkwbwYQFnV-93" vertex="1">
          <mxGeometry x="1135" width="165" height="138" as="geometry">
            <mxRectangle width="165" height="138" as="alternateBounds" />
          </mxGeometry>
        </mxCell>
        <mxCell id="8iDsTku8ZmkkwbwYQFnV-95" value="CO2Penalty" style="shape=partialRectangle;html=1;whiteSpace=wrap;connectable=0;strokeColor=inherit;overflow=hidden;fillColor=none;top=0;left=0;bottom=0;right=0;pointerEvents=1;fontSize=16;" parent="8iDsTku8ZmkkwbwYQFnV-93" vertex="1">
          <mxGeometry x="1300" width="140" height="138" as="geometry">
            <mxRectangle width="140" height="138" as="alternateBounds" />
          </mxGeometry>
        </mxCell>
        <mxCell id="8iDsTku8ZmkkwbwYQFnV-96" value="WACC" style="shape=partialRectangle;html=1;whiteSpace=wrap;connectable=0;strokeColor=inherit;overflow=hidden;fillColor=none;top=0;left=0;bottom=0;right=0;pointerEvents=1;fontSize=16;" parent="8iDsTku8ZmkkwbwYQFnV-93" vertex="1">
          <mxGeometry x="1440" width="160" height="138" as="geometry">
            <mxRectangle width="160" height="138" as="alternateBounds" />
          </mxGeometry>
        </mxCell>
        <mxCell id="8iDsTku8ZmkkwbwYQFnV-97" value="" style="shape=tableRow;horizontal=0;startSize=0;swimlaneHead=0;swimlaneBody=0;strokeColor=inherit;top=0;left=0;bottom=0;right=0;collapsible=0;dropTarget=0;fillColor=none;points=[[0,0.5],[1,0.5]];portConstraint=eastwest;fontSize=16;" parent="8iDsTku8ZmkkwbwYQFnV-92" vertex="1">
          <mxGeometry y="168" width="1600" height="92" as="geometry" />
        </mxCell>
        <mxCell id="-KVg8czxYZ8thADuA0Gg-17" value="23-06-19" style="shape=partialRectangle;html=1;whiteSpace=wrap;connectable=0;strokeColor=inherit;overflow=hidden;fillColor=none;top=0;left=0;bottom=0;right=0;pointerEvents=1;fontSize=16;" vertex="1" parent="8iDsTku8ZmkkwbwYQFnV-97">
          <mxGeometry width="165" height="92" as="geometry">
            <mxRectangle width="165" height="92" as="alternateBounds" />
          </mxGeometry>
        </mxCell>
        <mxCell id="-KVg8czxYZ8thADuA0Gg-14" value="&lt;p style=&quot;border-color: var(--border-color); font-size: 12px; background: transparent; line-height: 1.15px; margin-bottom: 0.25cm; text-align: start;&quot;&gt;&lt;font style=&quot;border-color: var(--border-color);&quot; size=&quot;3&quot;&gt;1301.40&lt;/font&gt;&lt;/p&gt;" style="shape=partialRectangle;html=1;whiteSpace=wrap;connectable=0;strokeColor=inherit;overflow=hidden;fillColor=none;top=0;left=0;bottom=0;right=0;pointerEvents=1;fontSize=16;" vertex="1" parent="8iDsTku8ZmkkwbwYQFnV-97">
          <mxGeometry x="165" width="115" height="92" as="geometry">
            <mxRectangle width="115" height="92" as="alternateBounds" />
          </mxGeometry>
        </mxCell>
        <mxCell id="-KVg8czxYZ8thADuA0Gg-11" value="&lt;p style=&quot;border-color: var(--border-color); background: transparent; font-size: 12px; line-height: 1.15px; margin-bottom: 0.25cm; text-align: start;&quot;&gt;&lt;span style=&quot;font-size: medium; background-color: transparent;&quot;&gt;97.00&lt;/span&gt;&lt;/p&gt;" style="shape=partialRectangle;html=1;whiteSpace=wrap;connectable=0;strokeColor=inherit;overflow=hidden;fillColor=none;top=0;left=0;bottom=0;right=0;pointerEvents=1;fontSize=16;" vertex="1" parent="8iDsTku8ZmkkwbwYQFnV-97">
          <mxGeometry x="280" width="190" height="92" as="geometry">
            <mxRectangle width="190" height="92" as="alternateBounds" />
          </mxGeometry>
        </mxCell>
        <mxCell id="-KVg8czxYZ8thADuA0Gg-8" value="&lt;p style=&quot;border-color: var(--border-color); background: transparent; font-size: 12px; line-height: 1.15px; margin-bottom: 0.25cm; text-align: start;&quot;&gt;&lt;span style=&quot;font-size: medium; background-color: transparent;&quot;&gt;100.00&lt;/span&gt;&lt;/p&gt;" style="shape=partialRectangle;html=1;whiteSpace=wrap;connectable=0;strokeColor=inherit;overflow=hidden;fillColor=none;top=0;left=0;bottom=0;right=0;pointerEvents=1;fontSize=16;" vertex="1" parent="8iDsTku8ZmkkwbwYQFnV-97">
          <mxGeometry x="470" width="200" height="92" as="geometry">
            <mxRectangle width="200" height="92" as="alternateBounds" />
          </mxGeometry>
        </mxCell>
        <mxCell id="-KVg8czxYZ8thADuA0Gg-5" value="&lt;p style=&quot;border-color: var(--border-color); color: rgb(0, 0, 0); font-family: Helvetica; font-style: normal; font-variant-ligatures: normal; font-variant-caps: normal; font-weight: 400; letter-spacing: normal; orphans: 2; text-indent: 0px; text-transform: none; widows: 2; word-spacing: 0px; -webkit-text-stroke-width: 0px; background: transparent; text-decoration-thickness: initial; text-decoration-style: initial; text-decoration-color: initial; font-size: 12px; line-height: 1.15px; margin-bottom: 0.25cm; text-align: start;&quot;&gt;&lt;span style=&quot;font-size: medium; background-color: transparent;&quot;&gt;9&lt;/span&gt;&lt;/p&gt;" style="shape=partialRectangle;html=1;whiteSpace=wrap;connectable=0;strokeColor=inherit;overflow=hidden;fillColor=none;top=0;left=0;bottom=0;right=0;pointerEvents=1;fontSize=16;" vertex="1" parent="8iDsTku8ZmkkwbwYQFnV-97">
          <mxGeometry x="670" width="150" height="92" as="geometry">
            <mxRectangle width="150" height="92" as="alternateBounds" />
          </mxGeometry>
        </mxCell>
        <mxCell id="-KVg8czxYZ8thADuA0Gg-2" value="&lt;p style=&quot;border-color: var(--border-color); background: transparent; font-size: 12px; line-height: 1.15px; margin-bottom: 0.25cm; text-align: start;&quot;&gt;&lt;span style=&quot;font-size: medium; background-color: transparent;&quot;&gt;509.60&lt;/span&gt;&lt;/p&gt;" style="shape=partialRectangle;html=1;whiteSpace=wrap;connectable=0;strokeColor=inherit;overflow=hidden;fillColor=none;top=0;left=0;bottom=0;right=0;pointerEvents=1;fontSize=16;" vertex="1" parent="8iDsTku8ZmkkwbwYQFnV-97">
          <mxGeometry x="820" width="315" height="92" as="geometry">
            <mxRectangle width="315" height="92" as="alternateBounds" />
          </mxGeometry>
        </mxCell>
        <mxCell id="8iDsTku8ZmkkwbwYQFnV-98" value="&lt;p style=&quot;border-color: var(--border-color); background: transparent; font-size: 12px; line-height: 1.15px; margin-bottom: 0.25cm; text-align: start;&quot;&gt;&lt;span style=&quot;font-size: medium; background-color: transparent;&quot;&gt;&amp;nbsp; 0&lt;br&gt;&lt;/span&gt;&lt;/p&gt;" style="shape=partialRectangle;html=1;whiteSpace=wrap;connectable=0;strokeColor=inherit;overflow=hidden;fillColor=none;top=0;left=0;bottom=0;right=0;pointerEvents=1;fontSize=16;" parent="8iDsTku8ZmkkwbwYQFnV-97" vertex="1">
          <mxGeometry x="1135" width="165" height="92" as="geometry">
            <mxRectangle width="165" height="92" as="alternateBounds" />
          </mxGeometry>
        </mxCell>
        <mxCell id="8iDsTku8ZmkkwbwYQFnV-99" value="1705.70" style="shape=partialRectangle;html=1;whiteSpace=wrap;connectable=0;strokeColor=inherit;overflow=hidden;fillColor=none;top=0;left=0;bottom=0;right=0;pointerEvents=1;fontSize=16;" parent="8iDsTku8ZmkkwbwYQFnV-97" vertex="1">
          <mxGeometry x="1300" width="140" height="92" as="geometry">
            <mxRectangle width="140" height="92" as="alternateBounds" />
          </mxGeometry>
        </mxCell>
        <mxCell id="8iDsTku8ZmkkwbwYQFnV-100" value="&lt;p style=&quot;border-color: var(--border-color); background: transparent; font-size: 12px; line-height: 1.15px; margin-bottom: 0.25cm; text-align: start;&quot;&gt;&amp;nbsp;7.40&lt;br style=&quot;border-color: var(--border-color);&quot;&gt;&lt;/p&gt;&lt;p style=&quot;border-color: var(--border-color); background: transparent; font-size: 12px; line-height: 1.15px; margin-bottom: 0.25cm; text-align: start;&quot;&gt;&lt;br&gt;&lt;/p&gt;" style="shape=partialRectangle;html=1;whiteSpace=wrap;connectable=0;strokeColor=inherit;overflow=hidden;fillColor=none;top=0;left=0;bottom=0;right=0;pointerEvents=1;fontSize=16;" parent="8iDsTku8ZmkkwbwYQFnV-97" vertex="1">
          <mxGeometry x="1440" width="160" height="92" as="geometry">
            <mxRectangle width="160" height="92" as="alternateBounds" />
          </mxGeometry>
        </mxCell>
        <mxCell id="-KVg8czxYZ8thADuA0Gg-19" value="" style="shape=tableRow;horizontal=0;startSize=0;swimlaneHead=0;swimlaneBody=0;strokeColor=inherit;top=0;left=0;bottom=0;right=0;collapsible=0;dropTarget=0;fillColor=none;points=[[0,0.5],[1,0.5]];portConstraint=eastwest;fontSize=16;" vertex="1" parent="8iDsTku8ZmkkwbwYQFnV-92">
          <mxGeometry y="260" width="1600" height="85" as="geometry" />
        </mxCell>
        <mxCell id="-KVg8czxYZ8thADuA0Gg-20" value="23-06-20" style="shape=partialRectangle;html=1;whiteSpace=wrap;connectable=0;strokeColor=inherit;overflow=hidden;fillColor=none;top=0;left=0;bottom=0;right=0;pointerEvents=1;fontSize=16;" vertex="1" parent="-KVg8czxYZ8thADuA0Gg-19">
          <mxGeometry width="165" height="85" as="geometry">
            <mxRectangle width="165" height="85" as="alternateBounds" />
          </mxGeometry>
        </mxCell>
        <mxCell id="-KVg8czxYZ8thADuA0Gg-21" value="&lt;p style=&quot;border-color: var(--border-color); font-size: 12px; background: transparent; line-height: 1.15px; margin-bottom: 0.25cm; text-align: start;&quot;&gt;&lt;font style=&quot;border-color: var(--border-color);&quot; size=&quot;3&quot;&gt;1301.40&lt;/font&gt;&lt;/p&gt;" style="shape=partialRectangle;html=1;whiteSpace=wrap;connectable=0;strokeColor=inherit;overflow=hidden;fillColor=none;top=0;left=0;bottom=0;right=0;pointerEvents=1;fontSize=16;" vertex="1" parent="-KVg8czxYZ8thADuA0Gg-19">
          <mxGeometry x="165" width="115" height="85" as="geometry">
            <mxRectangle width="115" height="85" as="alternateBounds" />
          </mxGeometry>
        </mxCell>
        <mxCell id="-KVg8czxYZ8thADuA0Gg-22" value="&lt;p style=&quot;border-color: var(--border-color); background: transparent; font-size: 12px; line-height: 1.15px; margin-bottom: 0.25cm; text-align: start;&quot;&gt;&lt;span style=&quot;font-size: medium; background-color: transparent;&quot;&gt;97.00&lt;/span&gt;&lt;/p&gt;" style="shape=partialRectangle;html=1;whiteSpace=wrap;connectable=0;strokeColor=inherit;overflow=hidden;fillColor=none;top=0;left=0;bottom=0;right=0;pointerEvents=1;fontSize=16;" vertex="1" parent="-KVg8czxYZ8thADuA0Gg-19">
          <mxGeometry x="280" width="190" height="85" as="geometry">
            <mxRectangle width="190" height="85" as="alternateBounds" />
          </mxGeometry>
        </mxCell>
        <mxCell id="-KVg8czxYZ8thADuA0Gg-23" value="&lt;p style=&quot;border-color: var(--border-color); background: transparent; font-size: 12px; line-height: 1.15px; margin-bottom: 0.25cm; text-align: start;&quot;&gt;&lt;span style=&quot;font-size: medium; background-color: transparent;&quot;&gt;100.00&lt;/span&gt;&lt;/p&gt;" style="shape=partialRectangle;html=1;whiteSpace=wrap;connectable=0;strokeColor=inherit;overflow=hidden;fillColor=none;top=0;left=0;bottom=0;right=0;pointerEvents=1;fontSize=16;" vertex="1" parent="-KVg8czxYZ8thADuA0Gg-19">
          <mxGeometry x="470" width="200" height="85" as="geometry">
            <mxRectangle width="200" height="85" as="alternateBounds" />
          </mxGeometry>
        </mxCell>
        <mxCell id="-KVg8czxYZ8thADuA0Gg-24" value="&lt;p style=&quot;border-color: var(--border-color); color: rgb(0, 0, 0); font-family: Helvetica; font-style: normal; font-variant-ligatures: normal; font-variant-caps: normal; font-weight: 400; letter-spacing: normal; orphans: 2; text-indent: 0px; text-transform: none; widows: 2; word-spacing: 0px; -webkit-text-stroke-width: 0px; background: transparent; text-decoration-thickness: initial; text-decoration-style: initial; text-decoration-color: initial; font-size: 12px; line-height: 1.15px; margin-bottom: 0.25cm; text-align: start;&quot;&gt;&lt;span style=&quot;font-size: medium; background-color: transparent;&quot;&gt;9&lt;/span&gt;&lt;/p&gt;" style="shape=partialRectangle;html=1;whiteSpace=wrap;connectable=0;strokeColor=inherit;overflow=hidden;fillColor=none;top=0;left=0;bottom=0;right=0;pointerEvents=1;fontSize=16;" vertex="1" parent="-KVg8czxYZ8thADuA0Gg-19">
          <mxGeometry x="670" width="150" height="85" as="geometry">
            <mxRectangle width="150" height="85" as="alternateBounds" />
          </mxGeometry>
        </mxCell>
        <mxCell id="-KVg8czxYZ8thADuA0Gg-25" value="&lt;p style=&quot;border-color: var(--border-color); background: transparent; font-size: 12px; line-height: 1.15px; margin-bottom: 0.25cm; text-align: start;&quot;&gt;&lt;span style=&quot;font-size: medium; background-color: transparent;&quot;&gt;509.60&lt;/span&gt;&lt;/p&gt;" style="shape=partialRectangle;html=1;whiteSpace=wrap;connectable=0;strokeColor=inherit;overflow=hidden;fillColor=none;top=0;left=0;bottom=0;right=0;pointerEvents=1;fontSize=16;" vertex="1" parent="-KVg8czxYZ8thADuA0Gg-19">
          <mxGeometry x="820" width="315" height="85" as="geometry">
            <mxRectangle width="315" height="85" as="alternateBounds" />
          </mxGeometry>
        </mxCell>
        <mxCell id="-KVg8czxYZ8thADuA0Gg-26" value="&lt;p style=&quot;border-color: var(--border-color); background: transparent; font-size: 12px; line-height: 1.15px; margin-bottom: 0.25cm; text-align: start;&quot;&gt;&lt;span style=&quot;font-size: medium; background-color: transparent;&quot;&gt;&amp;nbsp; 0&lt;br&gt;&lt;/span&gt;&lt;/p&gt;" style="shape=partialRectangle;html=1;whiteSpace=wrap;connectable=0;strokeColor=inherit;overflow=hidden;fillColor=none;top=0;left=0;bottom=0;right=0;pointerEvents=1;fontSize=16;" vertex="1" parent="-KVg8czxYZ8thADuA0Gg-19">
          <mxGeometry x="1135" width="165" height="85" as="geometry">
            <mxRectangle width="165" height="85" as="alternateBounds" />
          </mxGeometry>
        </mxCell>
        <mxCell id="-KVg8czxYZ8thADuA0Gg-27" value="1705.70" style="shape=partialRectangle;html=1;whiteSpace=wrap;connectable=0;strokeColor=inherit;overflow=hidden;fillColor=none;top=0;left=0;bottom=0;right=0;pointerEvents=1;fontSize=16;" vertex="1" parent="-KVg8czxYZ8thADuA0Gg-19">
          <mxGeometry x="1300" width="140" height="85" as="geometry">
            <mxRectangle width="140" height="85" as="alternateBounds" />
          </mxGeometry>
        </mxCell>
        <mxCell id="-KVg8czxYZ8thADuA0Gg-28" value="&lt;p style=&quot;border-color: var(--border-color); background: transparent; font-size: 12px; line-height: 1.15px; margin-bottom: 0.25cm; text-align: start;&quot;&gt;&amp;nbsp;7.40&lt;br style=&quot;border-color: var(--border-color);&quot;&gt;&lt;/p&gt;&lt;p style=&quot;border-color: var(--border-color); background: transparent; font-size: 12px; line-height: 1.15px; margin-bottom: 0.25cm; text-align: start;&quot;&gt;&lt;br&gt;&lt;/p&gt;" style="shape=partialRectangle;html=1;whiteSpace=wrap;connectable=0;strokeColor=inherit;overflow=hidden;fillColor=none;top=0;left=0;bottom=0;right=0;pointerEvents=1;fontSize=16;" vertex="1" parent="-KVg8czxYZ8thADuA0Gg-19">
          <mxGeometry x="1440" width="160" height="85" as="geometry">
            <mxRectangle width="160" height="85" as="alternateBounds" />
          </mxGeometry>
        </mxCell>
        <mxCell id="-KVg8czxYZ8thADuA0Gg-39" value="List of Teams in order&amp;nbsp; Or where team exists Rank-wise" style="whiteSpace=wrap;html=1;" vertex="1" parent="1">
          <mxGeometry x="510" y="650" width="540" height="60" as="geometry" />
        </mxCell>
      </root>
    </mxGraphModel>
  </diagram>
</mxfile>
